<svg width="31" height="31" viewBox="0 0 31 31" fill="none" xmlns="http://www.w3.org/2000/svg">
<path d="M6.31629 4.22222H30L26.7778 15.5H8.05137M28.3889 21.9444H9.05556L5.83333 1H1M10.6667 28.3889C10.6667 29.2787 9.94535 30 9.05556 30C8.16576 30 7.44444 29.2787 7.44444 28.3889C7.44444 27.4991 8.16576 26.7778 9.05556 26.7778C9.94535 26.7778 10.6667 27.4991 10.6667 28.3889ZM28.3889 28.3889C28.3889 29.2787 27.6676 30 26.7778 30C25.888 30 25.1667 29.2787 25.1667 28.3889C25.1667 27.4991 25.888 26.7778 26.7778 26.7778C27.6676 26.7778 28.3889 27.4991 28.3889 28.3889Z" stroke="white" stroke-width="2" stroke-linecap="round" stroke-linejoin="round"/>
</svg>
