<svg width="11" height="12" viewBox="0 0 11 12" fill="none" xmlns="http://www.w3.org/2000/svg">
<path d="M7.54183 3.91652C7.63805 3.82114 7.76793 3.76747 7.90341 3.76709C8.03888 3.76672 8.16906 3.81968 8.26581 3.91452C8.36255 4.00936 8.41807 4.13847 8.42038 4.27393C8.42269 4.40938 8.3716 4.54031 8.27814 4.63839L5.53364 8.06902C5.48647 8.11982 5.42955 8.16059 5.36626 8.1889C5.30297 8.2172 5.23463 8.23244 5.16532 8.23373C5.096 8.23501 5.02714 8.2223 4.96285 8.19637C4.89856 8.17043 4.84016 8.13179 4.79114 8.08277L2.97271 6.26364C2.92205 6.21644 2.88141 6.15951 2.85323 6.09626C2.82505 6.03301 2.8099 5.96474 2.80867 5.8955C2.80745 5.82627 2.82019 5.7575 2.84612 5.6933C2.87205 5.62909 2.91065 5.57077 2.95962 5.5218C3.00858 5.47284 3.0669 5.43424 3.13111 5.40831C3.19531 5.38238 3.26408 5.36964 3.33332 5.37086C3.40255 5.37208 3.47083 5.38724 3.53408 5.41542C3.59733 5.4436 3.65425 5.48423 3.70146 5.53489L5.14108 6.97383L7.52877 3.93164C7.53303 3.92632 7.53762 3.92126 7.54252 3.91652H7.54183Z" fill="white"/>
</svg>
