<svg width="13" height="13" viewBox="0 0 13 13" fill="none" xmlns="http://www.w3.org/2000/svg">
<path d="M12.5277 0.624871L9.88717 0.0155086C9.60026 -0.0505056 9.30574 0.0992959 9.18894 0.368431L7.97022 3.21212C7.86358 3.46094 7.93467 3.75293 8.14541 3.92304L9.68405 5.18239C8.77001 7.12981 7.17297 8.7497 5.18492 9.68151L3.92558 8.14288C3.75292 7.93214 3.46347 7.86105 3.21465 7.96768L0.37096 9.18641C0.0992859 9.30574 -0.0505158 9.60027 0.0154985 9.88717L0.624861 12.5277C0.688336 12.802 0.932081 13 1.21899 13C7.7214 13 13 7.73156 13 1.219C13 0.93463 12.8045 0.688346 12.5277 0.624871Z" fill="white"/>
</svg>
