<svg width="70" height="70" viewBox="0 0 70 70" fill="none" xmlns="http://www.w3.org/2000/svg">
<path d="M35 29.8397L8.99777 20.4849M35 29.8397L61.0103 20.5158M35 29.8397V60.8973M14.977 54.1831L31.8937 60.1536C33.0448 60.5599 33.6204 60.7631 34.2107 60.8437C34.7345 60.9152 35.2655 60.9152 35.7893 60.8437C36.3796 60.7631 36.9552 60.5599 38.1063 60.1536L55.023 54.1831C57.265 53.3918 58.386 52.9961 59.2135 52.2867C59.9443 51.6601 60.5088 50.8623 60.8564 49.9646C61.25 48.9481 61.25 47.7593 61.25 45.3818V24.6182C61.25 22.2406 61.25 21.0519 60.8564 20.0354C60.5088 19.1377 59.9443 18.3399 59.2135 17.7133C58.386 17.0039 57.265 16.6082 55.023 15.8169L38.1063 9.84635C36.9552 9.44006 36.3796 9.23692 35.7893 9.1563C35.2655 9.08478 34.7345 9.08478 34.2107 9.1563C33.6204 9.23692 33.0448 9.44006 31.8937 9.84635L14.977 15.8169C12.735 16.6082 11.614 17.0039 10.7865 17.7133C10.0557 18.3399 9.49124 19.1377 9.1436 20.0354C8.75 21.0519 8.75 22.2406 8.75 24.6182V45.3818C8.75 47.7594 8.75 48.9481 9.1436 49.9646C9.49124 50.8623 10.0557 51.6601 10.7865 52.2867C11.614 52.9961 12.735 53.3918 14.977 54.1831Z" stroke="#E3000F" stroke-width="4" stroke-linecap="round" stroke-linejoin="round"/>
</svg>
