<svg width="70" height="70" viewBox="0 0 70 70" fill="none" xmlns="http://www.w3.org/2000/svg">
<path d="M52.5 26.25V21C52.5 17.733 52.5 16.0995 51.8642 14.8517C51.3049 13.7541 50.4126 12.8617 49.315 12.3025C48.0671 11.6667 46.4336 11.6667 43.1667 11.6667H21C17.733 11.6667 16.0995 11.6667 14.8517 12.3025C13.7541 12.8617 12.8617 13.7541 12.3025 14.8517C11.6667 16.0995 11.6667 17.733 11.6667 21V52.5L23.3333 46.6667M58.3333 58.3333L51.9346 54.0675C51.0607 53.4849 50.6237 53.1936 50.1509 52.9872C49.7313 52.804 49.2916 52.6709 48.8408 52.5905C48.333 52.5 47.8078 52.5 46.7574 52.5H32.6667C29.3997 52.5 27.7662 52.5 26.5184 51.8642C25.4208 51.3049 24.5284 50.4126 23.9691 49.315C23.3333 48.0671 23.3333 46.4336 23.3333 43.1667V35.5833C23.3333 32.3164 23.3333 30.6829 23.9691 29.4351C24.5284 28.3374 25.4208 27.4451 26.5184 26.8858C27.7662 26.25 29.3997 26.25 32.6667 26.25H49C52.267 26.25 53.9005 26.25 55.1483 26.8858C56.2459 27.4451 57.1383 28.3374 57.6975 29.4351C58.3333 30.6829 58.3333 32.3164 58.3333 35.5833V58.3333Z" stroke="#E3000F" stroke-width="4" stroke-linecap="round" stroke-linejoin="round"/>
</svg>
