<svg width="70" height="70" viewBox="0 0 70 70" fill="none" xmlns="http://www.w3.org/2000/svg">
<path d="M14.5833 26.25H55.4166M43.75 52.5V43.75M26.25 52.5H26.2791M35 52.5H35.0291M35 43.75H35.0291M26.25 43.75H26.2791M43.75 35H43.7791M35 35H35.0291M26.25 35H26.2791M23.9166 61.25H46.0833C49.3503 61.25 50.9838 61.25 52.2316 60.6142C53.3292 60.0549 54.2216 59.1626 54.7809 58.0649C55.4166 56.8171 55.4166 55.1836 55.4166 51.9167V18.0833C55.4166 14.8164 55.4166 13.1829 54.7809 11.9351C54.2216 10.8374 53.3292 9.94506 52.2316 9.3858C50.9838 8.75 49.3503 8.75 46.0833 8.75H23.9166C20.6497 8.75 19.0162 8.75 17.7684 9.3858C16.6708 9.94506 15.7784 10.8374 15.2191 11.9351C14.5833 13.1829 14.5833 14.8164 14.5833 18.0833V51.9167C14.5833 55.1836 14.5833 56.8171 15.2191 58.0649C15.7784 59.1626 16.6708 60.0549 17.7684 60.6142C19.0162 61.25 20.6497 61.25 23.9166 61.25Z" stroke="#E3000F" stroke-width="4" stroke-linecap="round" stroke-linejoin="round"/>
</svg>
