<svg width="223" height="25" viewBox="0 0 223 25" fill="none" xmlns="http://www.w3.org/2000/svg">
<g clip-path="url(#clip0_2074_9)">
<path fill-rule="evenodd" clip-rule="evenodd" d="M20.9198 6.78076H59.0474L46.8557 25.0001H0L3.24229 20.1587H44.2891L50.0018 11.6222H17.6799L20.9198 6.78076Z" fill="#E3000F"/>
<path fill-rule="evenodd" clip-rule="evenodd" d="M42.6562 18.3111H4.44043L16.6321 0.0917969H63.5567L60.3144 4.93319H19.1979L13.486 13.4698H45.8961L42.6562 18.3111Z" fill="#E3000F"/>
<path fill-rule="evenodd" clip-rule="evenodd" d="M58.2891 18.6755L58.3014 18.5538L62.2761 12.3245C63.9958 10.1776 65.9187 9.10402 68.0602 9.10402H85.828L83.5036 12.4672H72.2082C71.5011 12.4788 70.8069 12.659 70.1834 12.9929C69.56 13.3268 69.0252 13.8047 68.6237 14.3869L68.1272 15.3176H77.9312C80.2183 15.3969 80.5747 16.6624 79.0003 19.1143L77.3262 21.7477C75.613 23.8842 73.6872 24.9524 71.5488 24.9523H53.7758L56.0986 21.605H67.3938C68.1016 21.593 68.7963 21.4127 69.4206 21.0789C70.0449 20.7451 70.5807 20.2675 70.9838 19.6855L71.5041 18.6755H58.2891ZM78.9028 24.9682H99.6161L110.541 9.08831H92.9261C90.6946 9.08831 88.8375 10.2446 87.3546 12.5572L78.9028 24.9682ZM96.4699 12.3086H100.78C100.941 12.3297 101.018 12.4145 101.003 12.5572L94.6256 21.6209H88.6766L94.2405 13.3822C94.4935 13.0319 94.8299 12.7503 95.2192 12.5629C95.6085 12.3754 96.0384 12.288 96.4699 12.3086ZM114.047 21.5309L114.283 21.6527H127.562L125.239 25H104.51L104.523 24.873L114.69 9.10402H122.516L114.047 21.5309ZM136.83 25H129.268L129.281 24.873L139.544 9.10402H147.027L136.83 25ZM167.382 9.08831H152.618L141.693 24.9682H159.307C161.539 24.9682 163.393 23.8119 164.868 21.4993L170.67 13.0066C172.465 10.1669 171.369 8.86077 167.382 9.08831ZM155.764 21.7477H151.454C151.292 21.7266 151.216 21.642 151.23 21.4993L157.608 12.4356H161.976C163.028 12.4356 163.301 12.8023 162.795 13.5356L157.993 20.6744C157.741 21.025 157.404 21.3069 157.015 21.4944C156.625 21.6818 156.195 21.7689 155.764 21.7477ZM178.692 18.8342L176.837 21.5309L177.074 21.6527H190.352L188.029 25H167.3L167.313 24.873L175.403 12.3245C177.117 10.1776 179.044 9.10412 181.182 9.10402H198.955L196.63 12.4672H185.335C184.627 12.4793 183.933 12.6597 183.308 12.9935C182.684 13.3274 182.148 13.805 181.745 14.3869L180.983 15.4869H191.707L189.385 18.8342H178.692ZM205.586 21.605L222.361 12.3245C223.552 10.1776 223.077 9.10412 220.937 9.10402H203.17L200.94 12.4672H211.49L194.573 21.7477C193.393 23.8842 193.874 24.9524 196.013 24.9523H213.781L215.983 21.605H205.586Z" fill="white"/>
</g>
<defs>
<clipPath id="clip0_2074_9">
<rect width="223" height="24.9082" fill="white" transform="translate(0 0.0917969)"/>
</clipPath>
</defs>
</svg>
